<mxfile host="app.diagrams.net" modified="2021-12-23T08:02:46.779Z" agent="5.0 (Windows NT 10.0; Win64; x64) AppleWebKit/537.36 (KHTML, like Gecko) Chrome/96.0.4664.110 Safari/537.36 Edg/96.0.1054.62" etag="nXu0INrIOSuHUrszruvE" version="16.0.3" type="github">
  <diagram id="5BAHxv5fAUts-Sr4acLN" name="Page-1">
    <mxGraphModel dx="2884" dy="2134" grid="1" gridSize="10" guides="1" tooltips="1" connect="1" arrows="1" fold="1" page="1" pageScale="1" pageWidth="827" pageHeight="1169" math="0" shadow="0">
      <root>
        <mxCell id="0" />
        <mxCell id="1" parent="0" />
        <mxCell id="kNMMWKxQCDq-riNIz1-I-6" style="edgeStyle=orthogonalEdgeStyle;rounded=0;orthogonalLoop=1;jettySize=auto;html=1;exitX=0.5;exitY=0;exitDx=0;exitDy=0;entryX=0.5;entryY=1;entryDx=0;entryDy=0;entryPerimeter=0;fontSize=12;" edge="1" parent="1" source="WqU56yUuRZQFHdNn_Zf5-1" target="WqU56yUuRZQFHdNn_Zf5-23">
          <mxGeometry relative="1" as="geometry" />
        </mxCell>
        <mxCell id="WqU56yUuRZQFHdNn_Zf5-1" value="SKF" style="rounded=0;whiteSpace=wrap;html=1;rotation=0;fillColor=#f0a30a;fontColor=#000000;strokeColor=#BD7000;" parent="1" vertex="1">
          <mxGeometry x="150" y="180" width="80" height="60" as="geometry" />
        </mxCell>
        <mxCell id="kNMMWKxQCDq-riNIz1-I-7" style="edgeStyle=orthogonalEdgeStyle;rounded=0;orthogonalLoop=1;jettySize=auto;html=1;exitX=0.5;exitY=0;exitDx=0;exitDy=0;fontSize=12;" edge="1" parent="1" source="WqU56yUuRZQFHdNn_Zf5-2">
          <mxGeometry relative="1" as="geometry">
            <mxPoint x="250" y="90" as="targetPoint" />
          </mxGeometry>
        </mxCell>
        <mxCell id="WqU56yUuRZQFHdNn_Zf5-2" value="S2D" style="rounded=0;whiteSpace=wrap;html=1;rotation=0;fillColor=#f0a30a;fontColor=#000000;strokeColor=#BD7000;" parent="1" vertex="1">
          <mxGeometry x="294" y="180" width="96" height="60" as="geometry" />
        </mxCell>
        <mxCell id="kNMMWKxQCDq-riNIz1-I-12" style="edgeStyle=orthogonalEdgeStyle;rounded=0;orthogonalLoop=1;jettySize=auto;html=1;exitX=0.5;exitY=1;exitDx=0;exitDy=0;fontSize=12;" edge="1" parent="1" source="WqU56yUuRZQFHdNn_Zf5-3">
          <mxGeometry relative="1" as="geometry">
            <mxPoint x="228.75" y="480" as="targetPoint" />
          </mxGeometry>
        </mxCell>
        <mxCell id="WqU56yUuRZQFHdNn_Zf5-3" value="DKF" style="rounded=0;whiteSpace=wrap;html=1;rotation=0;fillColor=#0050ef;fontColor=#ffffff;strokeColor=#001DBC;" parent="1" vertex="1">
          <mxGeometry x="169" y="359" width="120" height="44" as="geometry" />
        </mxCell>
        <mxCell id="WqU56yUuRZQFHdNn_Zf5-37" style="edgeStyle=orthogonalEdgeStyle;rounded=0;orthogonalLoop=1;jettySize=auto;html=1;exitX=1;exitY=0.5;exitDx=0;exitDy=0;fontSize=11;" parent="1" source="WqU56yUuRZQFHdNn_Zf5-4" edge="1">
          <mxGeometry relative="1" as="geometry">
            <mxPoint x="643" y="289.57142857142867" as="targetPoint" />
          </mxGeometry>
        </mxCell>
        <mxCell id="WqU56yUuRZQFHdNn_Zf5-45" style="edgeStyle=orthogonalEdgeStyle;rounded=0;orthogonalLoop=1;jettySize=auto;html=1;entryX=0.412;entryY=1.035;entryDx=0;entryDy=0;entryPerimeter=0;fontSize=11;exitX=0.75;exitY=0;exitDx=0;exitDy=0;" parent="1" source="WqU56yUuRZQFHdNn_Zf5-4" target="WqU56yUuRZQFHdNn_Zf5-39" edge="1">
          <mxGeometry relative="1" as="geometry" />
        </mxCell>
        <mxCell id="WqU56yUuRZQFHdNn_Zf5-4" value="dest" style="rounded=0;whiteSpace=wrap;html=1;rotation=0;fillColor=#cdeb8b;strokeColor=#36393d;" parent="1" vertex="1">
          <mxGeometry x="453" y="260" width="120" height="60" as="geometry" />
        </mxCell>
        <mxCell id="WqU56yUuRZQFHdNn_Zf5-28" style="edgeStyle=orthogonalEdgeStyle;rounded=0;orthogonalLoop=1;jettySize=auto;html=1;entryX=0;entryY=0.5;entryDx=0;entryDy=0;startArrow=none;" parent="1" source="WqU56yUuRZQFHdNn_Zf5-29" target="WqU56yUuRZQFHdNn_Zf5-1" edge="1">
          <mxGeometry relative="1" as="geometry" />
        </mxCell>
        <mxCell id="WqU56yUuRZQFHdNn_Zf5-64" style="edgeStyle=orthogonalEdgeStyle;rounded=0;orthogonalLoop=1;jettySize=auto;html=1;exitX=0.5;exitY=0;exitDx=0;exitDy=0;entryX=0.5;entryY=1;entryDx=0;entryDy=0;entryPerimeter=0;fontSize=12;" parent="1" source="WqU56yUuRZQFHdNn_Zf5-6" target="WqU56yUuRZQFHdNn_Zf5-61" edge="1">
          <mxGeometry relative="1" as="geometry" />
        </mxCell>
        <mxCell id="kNMMWKxQCDq-riNIz1-I-11" style="edgeStyle=orthogonalEdgeStyle;rounded=0;orthogonalLoop=1;jettySize=auto;html=1;entryX=1;entryY=0.5;entryDx=0;entryDy=0;fontSize=12;" edge="1" parent="1" source="WqU56yUuRZQFHdNn_Zf5-6" target="kNMMWKxQCDq-riNIz1-I-9">
          <mxGeometry relative="1" as="geometry" />
        </mxCell>
        <mxCell id="WqU56yUuRZQFHdNn_Zf5-6" value="" style="shape=image;html=1;verticalAlign=top;verticalLabelPosition=bottom;labelBackgroundColor=#ffffff;imageAspect=0;aspect=fixed;image=https://cdn3.iconfinder.com/data/icons/brands-applications/512/Doc_B-128.png" parent="1" vertex="1">
          <mxGeometry x="-230" y="185" width="50" height="50" as="geometry" />
        </mxCell>
        <mxCell id="kNMMWKxQCDq-riNIz1-I-3" style="edgeStyle=orthogonalEdgeStyle;rounded=0;orthogonalLoop=1;jettySize=auto;html=1;exitX=1;exitY=0.5;exitDx=0;exitDy=0;fontSize=12;entryX=0;entryY=0.5;entryDx=0;entryDy=0;" edge="1" parent="1" source="WqU56yUuRZQFHdNn_Zf5-7" target="WqU56yUuRZQFHdNn_Zf5-3">
          <mxGeometry relative="1" as="geometry">
            <mxPoint x="150" y="381.3684210526317" as="targetPoint" />
            <Array as="points">
              <mxPoint x="160" y="381" />
            </Array>
          </mxGeometry>
        </mxCell>
        <mxCell id="WqU56yUuRZQFHdNn_Zf5-7" value="" style="shape=image;html=1;verticalAlign=top;verticalLabelPosition=bottom;labelBackgroundColor=#ffffff;imageAspect=0;aspect=fixed;image=https://cdn3.iconfinder.com/data/icons/brands-applications/512/Doc_A-128.png" parent="1" vertex="1">
          <mxGeometry x="-230" y="353" width="56" height="56" as="geometry" />
        </mxCell>
        <mxCell id="WqU56yUuRZQFHdNn_Zf5-35" style="edgeStyle=orthogonalEdgeStyle;rounded=0;orthogonalLoop=1;jettySize=auto;html=1;exitX=1;exitY=0.5;exitDx=0;exitDy=0;exitPerimeter=0;entryX=0.5;entryY=0;entryDx=0;entryDy=0;fontSize=11;" parent="1" source="WqU56yUuRZQFHdNn_Zf5-23" target="WqU56yUuRZQFHdNn_Zf5-4" edge="1">
          <mxGeometry relative="1" as="geometry" />
        </mxCell>
        <mxCell id="WqU56yUuRZQFHdNn_Zf5-23" value="CER xml table" style="strokeWidth=2;html=1;shape=mxgraph.flowchart.database;whiteSpace=wrap;fillColor=#f0a30a;fontColor=#000000;strokeColor=#BD7000;" parent="1" vertex="1">
          <mxGeometry x="204" y="10" width="90" height="80" as="geometry" />
        </mxCell>
        <mxCell id="WqU56yUuRZQFHdNn_Zf5-36" style="edgeStyle=orthogonalEdgeStyle;rounded=0;orthogonalLoop=1;jettySize=auto;html=1;exitX=1;exitY=0.5;exitDx=0;exitDy=0;exitPerimeter=0;entryX=0.5;entryY=1;entryDx=0;entryDy=0;fontSize=11;" parent="1" source="WqU56yUuRZQFHdNn_Zf5-32" target="WqU56yUuRZQFHdNn_Zf5-4" edge="1">
          <mxGeometry relative="1" as="geometry" />
        </mxCell>
        <mxCell id="WqU56yUuRZQFHdNn_Zf5-52" style="edgeStyle=orthogonalEdgeStyle;rounded=0;orthogonalLoop=1;jettySize=auto;html=1;exitX=1;exitY=0.5;exitDx=0;exitDy=0;exitPerimeter=0;fontSize=15;entryX=0.5;entryY=1;entryDx=0;entryDy=0;" parent="1" source="WqU56yUuRZQFHdNn_Zf5-32" target="WqU56yUuRZQFHdNn_Zf5-54" edge="1">
          <mxGeometry relative="1" as="geometry">
            <mxPoint x="1251.2120472301137" y="400" as="targetPoint" />
          </mxGeometry>
        </mxCell>
        <mxCell id="WqU56yUuRZQFHdNn_Zf5-32" value="SSCP template xpath table" style="strokeWidth=2;html=1;shape=mxgraph.flowchart.database;whiteSpace=wrap;fillColor=#0050ef;fontColor=#ffffff;strokeColor=#001DBC;" parent="1" vertex="1">
          <mxGeometry x="169" y="480" width="115" height="80" as="geometry" />
        </mxCell>
        <mxCell id="WqU56yUuRZQFHdNn_Zf5-53" style="edgeStyle=orthogonalEdgeStyle;rounded=0;orthogonalLoop=1;jettySize=auto;html=1;exitX=1;exitY=0.5;exitDx=0;exitDy=0;exitPerimeter=0;fontSize=15;" parent="1" source="WqU56yUuRZQFHdNn_Zf5-39" target="WqU56yUuRZQFHdNn_Zf5-54" edge="1">
          <mxGeometry relative="1" as="geometry">
            <mxPoint x="1053" y="320" as="targetPoint" />
          </mxGeometry>
        </mxCell>
        <mxCell id="WqU56yUuRZQFHdNn_Zf5-39" value="updated SSCP xml table" style="strokeWidth=2;html=1;shape=mxgraph.flowchart.database;whiteSpace=wrap;fillColor=#e1d5e7;strokeColor=#9673a6;" parent="1" vertex="1">
          <mxGeometry x="550" y="65" width="115" height="110" as="geometry" />
        </mxCell>
        <mxCell id="WqU56yUuRZQFHdNn_Zf5-41" value="" style="shape=image;html=1;verticalAlign=top;verticalLabelPosition=bottom;labelBackgroundColor=#ffffff;imageAspect=0;aspect=fixed;image=https://cdn4.iconfinder.com/data/icons/file-extension-names-vol-8/512/15-128.png;fontSize=11;fillColor=#e1d5e7;strokeColor=#9673a6;" parent="1" vertex="1">
          <mxGeometry x="653.5" y="272" width="74" height="74" as="geometry" />
        </mxCell>
        <mxCell id="WqU56yUuRZQFHdNn_Zf5-43" value="&lt;b style=&quot;&quot;&gt;SSCP final&lt;/b&gt;" style="text;html=1;strokeColor=#9673a6;fillColor=#e1d5e7;align=center;verticalAlign=middle;whiteSpace=wrap;rounded=0;fontSize=11;labelBackgroundColor=none;" parent="1" vertex="1">
          <mxGeometry x="660.5" y="275" width="60" height="30" as="geometry" />
        </mxCell>
        <mxCell id="WqU56yUuRZQFHdNn_Zf5-48" style="edgeStyle=orthogonalEdgeStyle;rounded=0;orthogonalLoop=1;jettySize=auto;html=1;entryX=0.5;entryY=0;entryDx=0;entryDy=0;entryPerimeter=0;fontSize=11;" parent="1" source="WqU56yUuRZQFHdNn_Zf5-47" target="WqU56yUuRZQFHdNn_Zf5-23" edge="1">
          <mxGeometry relative="1" as="geometry" />
        </mxCell>
        <mxCell id="WqU56yUuRZQFHdNn_Zf5-47" value="&lt;span style=&quot;line-height: 1&quot;&gt;&lt;font&gt;&lt;font style=&quot;font-size: 15px&quot;&gt;UI Edit input&lt;/font&gt;&lt;br&gt;&lt;/font&gt;&lt;/span&gt;" style="html=1;strokeWidth=2;shape=manualInput;whiteSpace=wrap;rounded=1;size=26;arcSize=11;labelBackgroundColor=none;fontSize=11;fillColor=#f8cecc;strokeColor=#b85450;" parent="1" vertex="1">
          <mxGeometry x="150" y="-240" width="200" height="100" as="geometry" />
        </mxCell>
        <mxCell id="WqU56yUuRZQFHdNn_Zf5-49" value="&lt;div style=&quot;text-align: left ; font-size: 11px&quot;&gt;UI/DR to update CER xml table based upon UI edit input&lt;/div&gt;" style="text;html=1;strokeColor=#b85450;fillColor=#f8cecc;align=center;verticalAlign=middle;whiteSpace=wrap;rounded=0;fontSize=11;" parent="1" vertex="1">
          <mxGeometry x="260" y="-110" width="190" height="80" as="geometry" />
        </mxCell>
        <mxCell id="WqU56yUuRZQFHdNn_Zf5-50" value="&lt;div style=&quot;text-align: left ; font-size: 11px&quot;&gt;Store&lt;/div&gt;&lt;div style=&quot;text-align: left ; font-size: 11px&quot;&gt;1. Final mapping level xpaths&lt;/div&gt;&lt;div style=&quot;text-align: left ; font-size: 11px&quot;&gt;2. Final content to be highlighted on UI&lt;/div&gt;&lt;div style=&quot;text-align: left ; font-size: 11px&quot;&gt;3....&lt;/div&gt;" style="text;html=1;strokeColor=#9673a6;fillColor=#e1d5e7;align=center;verticalAlign=middle;whiteSpace=wrap;rounded=0;fontSize=11;" parent="1" vertex="1">
          <mxGeometry x="620.5" y="140" width="140" height="80" as="geometry" />
        </mxCell>
        <mxCell id="WqU56yUuRZQFHdNn_Zf5-60" style="edgeStyle=orthogonalEdgeStyle;rounded=0;orthogonalLoop=1;jettySize=auto;html=1;entryX=0;entryY=0.5;entryDx=0;entryDy=0;fontSize=12;" parent="1" source="WqU56yUuRZQFHdNn_Zf5-54" target="WqU56yUuRZQFHdNn_Zf5-58" edge="1">
          <mxGeometry relative="1" as="geometry" />
        </mxCell>
        <mxCell id="WqU56yUuRZQFHdNn_Zf5-54" value="Update SSCP final with a single mapping change" style="rounded=0;whiteSpace=wrap;html=1;labelBackgroundColor=none;fontSize=15;fillColor=#008a00;fontColor=#ffffff;strokeColor=#005700;" parent="1" vertex="1">
          <mxGeometry x="860" y="256" width="190" height="90" as="geometry" />
        </mxCell>
        <mxCell id="WqU56yUuRZQFHdNn_Zf5-55" value="" style="edgeStyle=orthogonalEdgeStyle;rounded=0;orthogonalLoop=1;jettySize=auto;html=1;exitX=1;exitY=0.5;exitDx=0;exitDy=0;exitPerimeter=0;fontSize=15;endArrow=none;" parent="1" source="WqU56yUuRZQFHdNn_Zf5-23" target="WqU56yUuRZQFHdNn_Zf5-54" edge="1">
          <mxGeometry relative="1" as="geometry">
            <mxPoint x="1250" y="320" as="targetPoint" />
            <mxPoint x="294" y="21.999999999999773" as="sourcePoint" />
          </mxGeometry>
        </mxCell>
        <mxCell id="WqU56yUuRZQFHdNn_Zf5-58" value="" style="shape=image;html=1;verticalAlign=top;verticalLabelPosition=bottom;labelBackgroundColor=#ffffff;imageAspect=0;aspect=fixed;image=https://cdn4.iconfinder.com/data/icons/file-extension-names-vol-8/512/15-128.png;fontSize=11;fillColor=#e1d5e7;strokeColor=#9673a6;" parent="1" vertex="1">
          <mxGeometry x="1110" y="264" width="74" height="74" as="geometry" />
        </mxCell>
        <mxCell id="WqU56yUuRZQFHdNn_Zf5-59" value="&lt;b&gt;&lt;font style=&quot;font-size: 12px&quot;&gt;Edited SSCP&lt;/font&gt;&lt;/b&gt;" style="text;html=1;strokeColor=#9673a6;fillColor=#e1d5e7;align=center;verticalAlign=middle;whiteSpace=wrap;rounded=0;fontSize=11;labelBackgroundColor=none;" parent="1" vertex="1">
          <mxGeometry x="1117" y="270" width="60" height="30" as="geometry" />
        </mxCell>
        <mxCell id="WqU56yUuRZQFHdNn_Zf5-65" style="edgeStyle=orthogonalEdgeStyle;rounded=0;orthogonalLoop=1;jettySize=auto;html=1;exitX=1;exitY=0.5;exitDx=0;exitDy=0;exitPerimeter=0;entryX=0.25;entryY=0;entryDx=0;entryDy=0;fontSize=12;" parent="1" source="WqU56yUuRZQFHdNn_Zf5-61" target="WqU56yUuRZQFHdNn_Zf5-1" edge="1">
          <mxGeometry relative="1" as="geometry">
            <Array as="points">
              <mxPoint x="170" y="73" />
            </Array>
          </mxGeometry>
        </mxCell>
        <mxCell id="WqU56yUuRZQFHdNn_Zf5-61" value="SKF parameters" style="strokeWidth=2;html=1;shape=mxgraph.flowchart.database;whiteSpace=wrap;fillColor=#FFAE0B;fontColor=#000000;strokeColor=#000000;" parent="1" vertex="1">
          <mxGeometry x="-250" y="30" width="90" height="66" as="geometry" />
        </mxCell>
        <mxCell id="WqU56yUuRZQFHdNn_Zf5-29" value="&lt;div style=&quot;text-align: left ; font-size: 11px&quot;&gt;&lt;span&gt;when we upload CER&lt;/span&gt;&lt;br&gt;&lt;span&gt;1. get device details (done)&lt;/span&gt;&lt;br&gt;&lt;span&gt;2. update out CER xml table for each device (cer doc id, device id)&lt;/span&gt;&lt;br&gt;&lt;/div&gt;" style="text;html=1;strokeColor=#BD7000;fillColor=#f0a30a;align=center;verticalAlign=middle;whiteSpace=wrap;rounded=0;fontSize=11;fontColor=#000000;" parent="1" vertex="1">
          <mxGeometry x="-90" y="175" width="170" height="70" as="geometry" />
        </mxCell>
        <mxCell id="WqU56yUuRZQFHdNn_Zf5-63" value="" style="edgeStyle=orthogonalEdgeStyle;rounded=0;orthogonalLoop=1;jettySize=auto;html=1;endArrow=none;entryX=0;entryY=0.5;entryDx=0;entryDy=0;" parent="1" source="WqU56yUuRZQFHdNn_Zf5-6" target="WqU56yUuRZQFHdNn_Zf5-29" edge="1">
          <mxGeometry relative="1" as="geometry">
            <mxPoint x="-80" y="210" as="sourcePoint" />
            <mxPoint x="-100" y="210" as="targetPoint" />
          </mxGeometry>
        </mxCell>
        <mxCell id="WqU56yUuRZQFHdNn_Zf5-30" value="&lt;div style=&quot;text-align: left ; font-size: 11px&quot;&gt;We will have a SSCP template/or will it be also uploaded?&lt;/div&gt;&lt;div style=&quot;text-align: left ; font-size: 11px&quot;&gt;&lt;span&gt;1. for SSCP template, we can update a table with xpath (for &amp;lt;Add text&amp;gt;)&lt;/span&gt;&lt;br&gt;&lt;/div&gt;" style="text;html=1;strokeColor=#001DBC;fillColor=#0050ef;align=center;verticalAlign=middle;whiteSpace=wrap;rounded=0;fontSize=11;fontColor=#ffffff;" parent="1" vertex="1">
          <mxGeometry x="-90" y="338" width="170" height="86" as="geometry" />
        </mxCell>
        <mxCell id="kNMMWKxQCDq-riNIz1-I-1" value="Uploaded CER" style="text;html=1;strokeColor=none;fillColor=none;align=center;verticalAlign=middle;whiteSpace=wrap;rounded=0;labelBackgroundColor=none;fontSize=12;" vertex="1" parent="1">
          <mxGeometry x="-240" y="240" width="60" height="30" as="geometry" />
        </mxCell>
        <mxCell id="kNMMWKxQCDq-riNIz1-I-2" value="SSCP template" style="text;html=1;strokeColor=none;fillColor=none;align=center;verticalAlign=middle;whiteSpace=wrap;rounded=0;labelBackgroundColor=none;fontSize=12;" vertex="1" parent="1">
          <mxGeometry x="-240" y="414" width="60" height="30" as="geometry" />
        </mxCell>
        <mxCell id="kNMMWKxQCDq-riNIz1-I-9" value="SKF device list, group number table update" style="rounded=0;whiteSpace=wrap;html=1;rotation=0;fillColor=#f0a30a;fontColor=#000000;strokeColor=#BD7000;" vertex="1" parent="1">
          <mxGeometry x="-420" y="180" width="80" height="60" as="geometry" />
        </mxCell>
        <mxCell id="kNMMWKxQCDq-riNIz1-I-13" value="" style="sketch=0;html=1;dashed=0;whitespace=wrap;fillColor=#2875E2;strokeColor=#ffffff;points=[[0.005,0.63,0],[0.1,0.2,0],[0.9,0.2,0],[0.5,0,0],[0.995,0.63,0],[0.72,0.99,0],[0.5,1,0],[0.28,0.99,0]];shape=mxgraph.kubernetes.icon;prIcon=api;rounded=1;labelBackgroundColor=none;fontSize=12;" vertex="1" parent="1">
          <mxGeometry x="910" y="-110" width="120" height="100" as="geometry" />
        </mxCell>
        <mxCell id="kNMMWKxQCDq-riNIz1-I-14" value="&lt;div style=&quot;text-align: left ; font-size: 11px&quot;&gt;&lt;b&gt;Version track Edits&lt;/b&gt;&lt;/div&gt;&lt;div style=&quot;text-align: left ; font-size: 11px&quot;&gt;JJ requires to store changes for Audit&lt;/div&gt;" style="text;html=1;strokeColor=#b85450;fillColor=#f8cecc;align=center;verticalAlign=middle;whiteSpace=wrap;rounded=0;fontSize=11;" vertex="1" parent="1">
          <mxGeometry x="430.5" y="-260" width="190" height="80" as="geometry" />
        </mxCell>
      </root>
    </mxGraphModel>
  </diagram>
</mxfile>
